<svg xmlns="http://www.w3.org/2000/svg" width="25" height="25" viewBox="0 0 25 25">
    <g fill="none" fill-rule="evenodd" stroke-linecap="round" stroke-linejoin="round">
        <g stroke="#FFF" stroke-width="1.195">
            <path d="M1000.254 1080.6c1.136 0 2.058-.912 2.058-2.036 0-1.125-.922-2.037-2.058-2.037-1.137 0-2.059.912-2.059 2.037 0 1.124.922 2.036 2.059 2.036zm11.834 0c1.136 0 2.058-.912 2.058-2.036 0-1.125-.922-2.037-2.058-2.037-1.137 0-2.058.912-2.058 2.037 0 1.124.921 2.036 2.058 2.036m0-6.11h-10.805c-.568 0-1.115-.452-1.219-1l-2.519-13.292c-.21-1.104-1.305-1.998-2.437-1.998h-2.572m20.618 11.27c-.305 1.086-1.477 1.966-2.612 1.966H999.74l-1.8-9.163h16.21c.566 0 .902.442.75.98l-1.745 6.218z" transform="translate(-991.000000, -1057.000000) translate(1003.735739, 1069.400000) scale(-1, 1) translate(-1003.735739, -1069.400000)"/>
        </g>
    </g>
</svg>
