<svg xmlns="http://www.w3.org/2000/svg" width="104" height="128" viewBox="0 0 104 128">
    <defs>
        <linearGradient id="5vlaxkzkja" x1="46.143%" x2="80.301%" y1="8.985%" y2="100%">
            <stop offset="0%" stop-color="#265EB7"/>
            <stop offset="45.009%" stop-color="#4589CF"/>
            <stop offset="100%" stop-color="#6BBEEB"/>
        </linearGradient>
        <linearGradient id="3o35q9sk7b" x1="32.702%" x2="57.562%" y1="27.188%" y2="100%">
            <stop offset="0%" stop-color="#265EB7"/>
            <stop offset="45.009%" stop-color="#4589CF"/>
            <stop offset="100%" stop-color="#6BBEEB"/>
        </linearGradient>
    </defs>
    <g fill="none" fill-rule="evenodd">
        <g fill-rule="nonzero">
            <g>
                <path fill="#F3F3F3" d="M104 20c.1 0-50.7-19.5-52-20C51 .4-.1 20 0 20v36.8c0 25.5 7.3 58.8 52 71.2 44.6-12.4 51.9-46.3 51.9-71.2.1-12.6.1-36.8.1-36.8z" transform="translate(-320.000000, -1503.000000) translate(320.000000, 1503.000000)"/>
                <path fill="#E7E7E7" d="M0 56.8c0 25.5 7.3 58.8 52 71.2V0C50.1.7 0 20 0 20v36.8z" transform="translate(-320.000000, -1503.000000) translate(320.000000, 1503.000000)"/>
                <path fill="url(#5vlaxkzkja)" d="M93.9 26.9c.1 0-40.9-16.5-42-16.9-.9.3-42.1 16.2-42 16.1V57c0 21.4 4.2 50.6 42 61 37.7-10.4 42-40.1 42-61 .1-10.6.1-30.1 0-30.1z" transform="translate(-320.000000, -1503.000000) translate(320.000000, 1503.000000)"/>
                <g fill="url(#3o35q9sk7b)" transform="translate(-320.000000, -1503.000000) translate(320.000000, 1503.000000) translate(9.999965, 10.000000)">
                    <path d="M42 0C41.1.3-.1 16.2 0 16.1V47c0 21.4 4.2 50.6 42 61V0z"/>
                </g>
                <path fill="#F9F9F9" d="M71.8 54.2c-.3-1-1.2-1.7-2.3-1.9l-10.4-1.5-4.5-9.2c-.5-1-1.5-1.6-2.6-1.6s-2.1.6-2.6 1.6l-4.5 9.2-10.4 1.5c-1.1.2-2 .9-2.3 1.9-.3 1-.1 2.1.7 2.8l7.6 7.5-1.8 10.4c-.2 1 .3 2.1 1.2 2.7.5.3 1.1.5 1.7.5.5 0 1-.1 1.4-.3l9.1-4.8 9.1 4.8c.4.2.9.3 1.4.3.6 0 1.2-.2 1.7-.5.9-.6 1.4-1.7 1.2-2.7l-1.8-10.4 7.6-7.5c.6-.8.9-1.8.5-2.8z" transform="translate(-320.000000, -1503.000000) translate(320.000000, 1503.000000)"/>
            </g>
        </g>
    </g>
</svg>
